<?xml version="1.0" standalone="no"?>
<!DOCTYPE svg PUBLIC "-//W3C//DTD SVG 20010904//EN"
 "http://www.w3.org/TR/2001/REC-SVG-20010904/DTD/svg10.dtd">
<svg version="1.0" xmlns="http://www.w3.org/2000/svg"
 width="666.000000pt" height="666.000000pt" viewBox="0 0 666.000000 666.000000"
 preserveAspectRatio="xMidYMid meet">
<metadata>
Created by potrace 1.14, written by Peter Selinger 2001-2017
</metadata>
<g transform="translate(0.000000,666.000000) scale(0.100000,-0.100000)"
fill="#000000" stroke="none">
<path d="M4150 6603 c0 -4 17 -83 37 -175 23 -104 33 -171 27 -176 -5 -5 -236
-61 -514 -126 -278 -65 -818 -191 -1200 -281 -382 -90 -712 -166 -732 -170
-43 -8 -74 -35 -41 -35 18 0 464 103 1977 459 450 105 511 118 521 104 9 -12
16 -13 33 -4 14 7 23 8 27 1 3 -6 39 -38 78 -72 112 -96 337 -307 507 -477 85
-85 184 -178 220 -206 36 -29 87 -76 114 -106 26 -30 65 -72 86 -94 56 -61 56
-62 -13 -57 -39 3 -80 14 -111 29 -47 24 -56 25 -277 26 -207 2 -228 4 -232
19 -7 24 -55 41 -97 34 -29 -5 -51 2 -115 36 -64 33 -103 65 -192 155 -105
105 -147 134 -172 118 -20 -12 -11 -31 23 -47 18 -9 83 -63 142 -120 60 -58
131 -117 157 -133 29 -16 45 -31 39 -37 -5 -5 -170 -10 -368 -12 -339 -3 -362
-4 -407 -24 -26 -11 -47 -25 -47 -31 0 -6 -9 -15 -20 -21 -16 -9 -26 -7 -46 9
-38 30 -70 33 -237 21 -115 -8 -181 -18 -258 -39 -102 -29 -103 -29 -127 -10
-14 10 -32 19 -41 19 -10 0 -21 4 -26 9 -22 22 -465 -28 -700 -79 -49 -11
-123 -24 -164 -29 -51 -7 -80 -16 -96 -31 -18 -17 -23 -18 -28 -6 -4 9 -26 17
-64 21 -32 3 -76 13 -99 21 -22 8 -100 22 -173 32 -109 15 -136 22 -150 39
-29 37 -59 47 -87 29 -50 -33 -57 -59 -62 -207 -5 -162 14 -483 31 -519 17
-36 57 -37 96 -5 17 15 31 33 31 40 0 25 -21 27 -44 6 -12 -12 -27 -21 -33
-21 -19 0 -27 104 -27 376 -1 202 2 264 12 277 18 21 40 11 44 -21 3 -25 6
-26 73 -27 85 -2 216 -22 270 -41 23 -8 50 -14 61 -14 12 0 34 -5 50 -10 26
-9 30 -15 31 -53 0 -23 3 -194 5 -380 3 -365 2 -357 57 -357 14 0 37 11 51 25
25 24 39 27 196 40 204 18 229 23 464 86 196 54 227 70 216 115 -4 13 -1 24 6
26 6 2 17 54 25 129 7 68 23 173 34 232 26 129 32 135 177 179 75 22 132 31
249 39 l153 11 49 -32 c44 -29 49 -36 55 -77 11 -81 6 -315 -9 -418 -25 -171
-22 -176 84 -181 58 -3 141 10 444 71 205 41 391 81 415 89 92 33 127 77 98
121 -22 33 -56 32 -120 -4 -28 -16 -69 -34 -91 -40 -56 -16 -358 -80 -430 -92
-33 -5 -114 -17 -180 -28 -66 -10 -122 -17 -123 -16 -2 2 2 143 9 314 l13 310
50 10 c28 5 195 13 371 16 176 3 346 11 379 16 32 6 61 7 65 4 3 -4 7 -92 8
-197 1 -128 6 -194 14 -204 14 -17 75 -18 86 -1 4 6 8 104 8 217 l0 205 220 0
c207 0 223 -1 265 -22 30 -15 74 -25 130 -29 47 -4 88 -12 93 -18 4 -6 4 -28
1 -49 -5 -31 -2 -42 15 -58 l21 -19 6 40 c8 47 43 105 64 105 33 0 49 -265 25
-428 -29 -198 -47 -271 -70 -276 -18 -3 -35 -18 -35 -31 0 -3 9 -20 20 -37 20
-34 50 -36 50 -4 0 9 4 21 9 27 16 18 31 78 57 233 24 142 26 171 20 325 -9
229 -32 274 -111 227 l-35 -20 0 23 c0 26 -66 86 -86 79 -5 -2 -41 31 -78 72
-38 42 -100 101 -140 133 -39 31 -136 122 -216 202 -162 162 -416 401 -532
500 l-76 65 84 167 c46 92 84 172 84 178 0 35 -31 -11 -106 -162 l-87 -173
-38 165 c-21 91 -38 173 -39 183 0 16 -30 26 -30 10z m-1332 -1528 c7 -6 -20
-201 -40 -295 -11 -52 -23 -131 -26 -175 l-7 -80 -125 -42 c-164 -54 -259 -71
-471 -83 -97 -5 -183 -12 -191 -15 -23 -9 -30 102 -22 361 l7 222 71 7 c38 3
88 13 111 20 86 30 308 68 510 88 31 3 178 -4 183 -8z"/>
<path d="M2661 4991 c-6 -11 -11 -27 -11 -36 0 -34 -42 -95 -107 -155 -100
-91 -141 -112 -217 -112 -136 0 -179 67 -140 225 5 23 3 27 -15 27 -31 0 -51
-58 -51 -146 0 -68 2 -76 32 -110 41 -46 83 -64 150 -64 98 1 157 34 283 156
79 76 130 162 123 206 -4 29 -34 35 -47 9z"/>
<path d="M1890 6330 c0 -7 358 -10 1055 -10 697 0 1055 3 1055 10 0 7 -358 10
-1055 10 -697 0 -1055 -3 -1055 -10z"/>
<path d="M4350 6227 c0 -11 91 -46 336 -127 184 -62 338 -110 341 -107 14 15
-32 34 -330 133 -177 59 -328 109 -334 112 -7 2 -13 -3 -13 -11z"/>
<path d="M2450 6120 c-63 -9 -294 -41 -512 -70 -219 -30 -403 -57 -410 -61 -7
-5 -9 -11 -5 -15 7 -7 1053 129 1100 142 31 9 18 24 -20 23 -21 -1 -90 -9
-153 -19z"/>
<path d="M4756 5932 c-3 -6 36 -31 88 -56 68 -34 126 -74 209 -145 63 -54 144
-116 178 -137 92 -56 211 -106 223 -94 6 6 -18 22 -70 46 -113 51 -187 98
-279 177 -113 99 -171 141 -240 175 -75 37 -102 45 -109 34z"/>
<path d="M2775 5508 c-105 -54 -173 -81 -330 -129 -168 -52 -265 -96 -265
-120 0 -25 20 -24 70 2 23 12 108 45 188 74 259 92 437 170 437 190 0 29 -15
27 -100 -17z"/>
<path d="M4356 5041 c-3 -5 -9 -31 -12 -58 -9 -66 -34 -111 -91 -164 -64 -60
-104 -72 -212 -67 -143 7 -180 36 -205 162 -9 41 -18 62 -29 64 -24 5 -28 -28
-11 -93 28 -110 60 -145 159 -170 146 -37 250 -11 343 89 66 70 94 130 90 193
-3 44 -19 66 -32 44z"/>
<path d="M3162 4888 c-5 -7 -24 -60 -42 -118 -47 -153 -89 -250 -207 -480
-130 -252 -164 -312 -242 -420 -95 -133 -83 -162 49 -125 88 25 312 68 437 85
39 5 174 12 299 15 125 3 232 9 236 13 5 5 6 17 2 26 -5 13 -13 16 -33 11 -14
-3 -127 -12 -251 -20 -124 -8 -270 -21 -325 -30 -55 -8 -147 -20 -205 -25 -58
-6 -129 -18 -159 -26 -29 -8 -55 -13 -58 -11 -5 6 47 102 88 163 34 49 172
310 298 560 79 158 151 340 151 381 0 17 -24 17 -38 1z"/>
<path d="M5420 4135 c0 -69 3 -87 16 -92 27 -10 33 10 27 95 -5 71 -8 82 -24
82 -17 0 -19 -9 -19 -85z"/>
<path d="M5390 3936 c0 -57 13 -78 35 -55 19 21 6 103 -17 107 -15 3 -18 -5
-18 -52z"/>
<path d="M5276 3945 c-3 -9 -6 -49 -6 -90 0 -53 4 -76 15 -85 27 -23 36 2 33
96 -2 72 -6 89 -19 92 -9 2 -19 -4 -23 -13z"/>
<path d="M5354 3806 c-3 -7 -4 -35 -2 -62 3 -41 6 -49 23 -49 16 0 21 8 23 36
5 60 -28 117 -44 75z"/>
<path d="M3104 3625 c-4 -8 -3 -54 1 -100 6 -74 9 -85 26 -85 17 0 19 8 19 73
0 39 2 83 3 97 1 19 -3 26 -21 28 -13 2 -25 -3 -28 -13z"/>
<path d="M3460 3625 c-17 -20 -5 -45 20 -45 11 0 23 7 26 15 6 15 -11 45 -26
45 -4 0 -13 -7 -20 -15z"/>
<path d="M5317 3634 c-19 -19 -2 -164 19 -164 20 0 25 37 17 104 -7 55 -20 76
-36 60z"/>
<path d="M3346 3594 c-11 -30 -6 -75 9 -81 9 -3 18 -3 21 -1 10 11 13 50 4 74
-11 28 -25 31 -34 8z"/>
<path d="M5119 3591 c-2 -6 -3 -47 -1 -91 3 -69 6 -80 22 -80 20 0 30 -26 30
-81 0 -43 21 -67 39 -45 8 10 10 31 6 63 -12 92 -16 103 -35 103 -17 0 -19 9
-22 67 -2 54 -6 68 -19 71 -10 2 -19 -2 -20 -7z"/>
<path d="M2922 3557 c-9 -10 -5 -23 14 -50 14 -21 30 -35 35 -31 5 3 16 0 24
-6 20 -16 35 -4 35 29 0 33 -27 62 -39 43 -5 -9 -12 -7 -26 8 -21 23 -29 25
-43 7z"/>
<path d="M3607 3563 c-3 -5 -7 -21 -8 -38 -3 -24 0 -31 18 -33 17 -2 23 3 28
27 3 17 4 35 0 41 -7 12 -32 13 -38 3z"/>
<path d="M3820 3533 c-23 -30 -23 -56 2 -61 16 -3 48 46 48 75 0 22 -27 15
-50 -14z"/>
<path d="M2750 3521 c0 -42 9 -61 30 -61 13 0 19 10 22 34 5 46 0 56 -28 56
-20 0 -24 -5 -24 -29z"/>
<path d="M3464 3535 c-8 -21 10 -70 27 -70 8 0 15 12 17 28 5 43 -31 77 -44
42z"/>
<path d="M3262 3518 c-17 -17 -15 -63 3 -78 24 -20 39 2 31 44 -8 40 -18 50
-34 34z"/>
<path d="M3540 3500 c0 -32 23 -51 41 -33 14 14 -7 63 -26 63 -10 0 -15 -10
-15 -30z"/>
<path d="M3737 3493 c-13 -12 -7 -71 7 -76 20 -8 26 2 26 45 0 36 -15 50 -33
31z"/>
<path d="M3890 3494 c0 -4 5 -24 12 -45 12 -42 48 -57 48 -20 0 37 -19 71 -40
71 -11 0 -20 -3 -20 -6z"/>
<path d="M2887 3483 c-13 -13 -7 -64 8 -70 19 -7 24 -2 30 26 7 39 -16 66 -38
44z"/>
<path d="M2414 3453 c9 -37 27 -55 45 -44 21 14 0 65 -29 69 -20 3 -22 1 -16
-25z"/>
<path d="M1466 3434 c-16 -42 7 -96 34 -79 21 13 9 95 -15 95 -7 0 -16 -7 -19
-16z"/>
<path d="M4156 3442 c-7 -12 22 -100 36 -108 5 -3 15 -1 21 5 15 15 -14 105
-35 109 -9 2 -19 -1 -22 -6z"/>
<path d="M4004 3426 c-10 -25 0 -71 15 -71 19 0 34 55 19 72 -14 17 -27 17
-34 -1z"/>
<path d="M2508 3408 c-8 -26 7 -83 22 -83 22 0 21 89 -1 93 -9 2 -18 -3 -21
-10z"/>
<path d="M4957 3393 c-2 -5 -5 -30 -6 -58 -1 -27 -3 -63 -4 -80 -2 -24 2 -30
17 -30 17 0 22 12 33 75 7 41 11 81 8 88 -5 13 -41 17 -48 5z"/>
<path d="M1645 3338 c9 -82 14 -98 29 -98 20 0 25 21 19 71 -7 54 -19 79 -39
79 -12 0 -14 -10 -9 -52z"/>
<path d="M3364 3375 c-8 -21 3 -48 19 -43 19 7 22 58 2 58 -8 0 -18 -7 -21
-15z"/>
<path d="M2662 3358 c-14 -14 -15 -47 -3 -67 14 -23 41 -5 41 27 0 36 -21 57
-38 40z"/>
<path d="M3533 3354 c-8 -21 13 -42 28 -27 13 13 5 43 -11 43 -6 0 -13 -7 -17
-16z"/>
<path d="M2337 3344 c-4 -4 -7 -27 -7 -51 0 -37 3 -43 20 -43 26 0 31 16 22
59 -7 34 -22 48 -35 35z"/>
<path d="M2965 3329 c-8 -12 23 -49 42 -49 7 0 13 8 13 18 0 33 -40 56 -55 31z"/>
<path d="M1524 3317 c-2 -7 -1 -37 3 -67 6 -39 13 -55 23 -55 19 0 34 103 18
122 -14 17 -37 17 -44 0z"/>
<path d="M4030 3319 c-87 -21 -440 -56 -820 -79 -91 -6 -203 -15 -250 -20 -47
-6 -195 -15 -330 -20 -314 -13 -404 -22 -416 -42 -8 -12 24 -40 37 -33 12 8
190 23 398 35 106 6 215 15 241 20 55 10 530 53 845 75 335 24 350 27 350 49
0 24 -10 26 -55 15z"/>
<path d="M5120 3293 c-8 -173 -8 -193 4 -193 22 0 35 42 38 120 3 71 2 75 -19
78 -13 2 -23 0 -23 -5z"/>
<path d="M2196 3273 c-3 -4 -6 -17 -6 -30 0 -16 6 -23 19 -23 24 0 33 13 25
33 -6 17 -29 29 -38 20z"/>
<path d="M4293 3254 c-9 -23 5 -176 17 -188 23 -23 31 11 24 108 -5 72 -10 96
-21 96 -7 0 -16 -7 -20 -16z"/>
<path d="M5005 3240 c-10 -16 15 -166 31 -187 9 -14 16 -15 24 -7 9 9 8 34 -7
105 -17 87 -32 115 -48 89z"/>
<path d="M1596 3204 c-12 -32 -6 -92 12 -115 19 -22 19 -22 25 46 4 37 4 72 1
76 -9 14 -31 10 -38 -7z"/>
<path d="M4763 3114 c-9 -23 10 -69 27 -69 17 0 24 27 16 61 -7 27 -33 32 -43
8z"/>
<path d="M1698 3109 c-10 -5 -18 -17 -18 -26 0 -9 -9 -27 -20 -39 l-21 -21 26
-32 c30 -35 50 -41 42 -12 -6 25 10 51 28 45 20 -8 29 18 21 61 -7 37 -25 44
-58 24z"/>
<path d="M2107 3094 c-4 -4 -7 -29 -7 -56 0 -42 3 -48 21 -48 18 0 20 5 17 52
-3 48 -15 68 -31 52z"/>
<path d="M4166 3081 c-9 -14 9 -140 22 -153 20 -20 43 8 31 38 -5 14 -9 40 -9
59 0 18 -3 40 -6 49 -7 17 -29 21 -38 7z"/>
<path d="M4844 3080 c-9 -9 -9 -22 -2 -48 6 -20 13 -65 17 -101 5 -53 10 -66
25 -69 23 -5 38 16 27 37 -5 9 -12 46 -16 83 -7 73 -31 118 -51 98z"/>
<path d="M4587 3044 c-4 -4 -7 -27 -7 -51 0 -37 3 -43 21 -43 18 0 20 5 17 47
-3 44 -15 62 -31 47z"/>
<path d="M2007 2973 c-5 -8 -10 -82 -8 -110 1 -7 10 -13 21 -13 19 0 21 5 18
62 -3 55 -17 84 -31 61z"/>
<path d="M1812 2953 c-4 -10 -14 -18 -22 -18 -19 0 -25 -37 -10 -64 17 -32 30
-25 31 17 1 37 1 37 11 9 14 -40 44 -32 41 11 -2 52 -36 81 -51 45z"/>
<path d="M2182 2903 c2 -53 6 -68 18 -68 12 0 16 15 18 68 3 62 1 67 -18 67
-19 0 -21 -5 -18 -67z"/>
<path d="M3451 2876 c-7 -8 -11 -35 -9 -63 3 -40 6 -48 23 -48 18 0 20 6 17
55 -4 62 -13 78 -31 56z"/>
<path d="M4627 2883 c-9 -8 -9 -66 0 -116 5 -35 26 -58 39 -44 8 8 8 143 -1
156 -7 12 -28 15 -38 4z"/>
<path d="M4746 2871 c-3 -5 0 -35 7 -68 11 -46 18 -58 33 -58 15 0 19 6 16 33
-5 65 -39 121 -56 93z"/>
<path d="M1926 2862 c-8 -13 -11 -91 -3 -98 3 -4 13 -4 22 -1 21 9 22 107 1
107 -8 0 -17 -4 -20 -8z"/>
<path d="M3076 2853 c-9 -9 4 -125 16 -140 5 -6 16 -9 24 -6 14 5 13 57 -2
131 -4 21 -23 29 -38 15z"/>
<path d="M4157 2853 c-9 -8 -7 -80 2 -113 4 -15 14 -25 26 -25 16 0 19 8 19
61 0 33 -4 66 -8 72 -8 13 -29 16 -39 5z"/>
<path d="M4440 2835 c0 -34 27 -85 44 -85 23 0 24 23 4 68 -21 47 -48 57 -48
17z"/>
<path d="M3857 2827 c-3 -8 -8 -39 -12 -70 -6 -48 -5 -58 9 -63 9 -4 19 -4 21
-2 7 7 22 123 17 136 -5 16 -29 15 -35 -1z"/>
<path d="M2163 2814 c-3 -9 -1 -25 5 -35 7 -10 12 -29 12 -41 0 -44 12 -68 33
-68 18 0 19 5 14 48 -9 80 -48 137 -64 96z"/>
<path d="M3974 2805 c-8 -21 3 -106 16 -119 19 -19 31 11 28 70 -2 47 -7 59
-21 62 -9 2 -20 -4 -23 -13z"/>
<path d="M2054 2757 c-3 -8 -4 -36 -2 -63 2 -36 7 -50 19 -52 22 -4 27 14 20
72 -6 49 -26 72 -37 43z"/>
<path d="M4430 2743 c0 -38 21 -93 36 -93 22 0 26 22 12 65 -14 42 -48 62 -48
28z"/>
<path d="M4287 2743 c-9 -8 -9 -90 -1 -120 4 -14 14 -23 27 -23 18 0 19 4 13
46 -3 26 -6 60 -6 75 0 27 -17 39 -33 22z"/>
<path d="M2817 2723 c-3 -5 -8 -51 -12 -104 -5 -71 -4 -98 5 -104 22 -14 31
12 37 113 5 89 4 102 -10 102 -9 0 -18 -3 -20 -7z"/>
<path d="M2561 2628 c-14 -37 -32 -158 -26 -168 11 -18 35 -10 39 13 12 69 26
135 32 155 5 18 2 22 -15 22 -13 0 -25 -9 -30 -22z"/>
<path d="M3127 2643 c-2 -5 -1 -44 2 -88 5 -71 8 -80 26 -80 18 0 20 6 19 60
-1 77 -11 115 -29 115 -7 0 -16 -3 -18 -7z"/>
<path d="M4091 2633 c0 -10 8 -45 17 -78 12 -43 22 -61 36 -63 27 -6 38 19 21
45 -8 12 -15 29 -15 38 0 26 -29 75 -45 75 -8 0 -15 -8 -14 -17z"/>
<path d="M3550 2611 c0 -57 12 -91 31 -91 21 0 25 29 13 89 -9 42 -44 44 -44
2z"/>
<path d="M2173 2623 c-27 -10 -9 -83 19 -83 10 0 11 77 1 83 -5 2 -14 2 -20 0z"/>
<path d="M4486 2617 c-24 -18 -9 -82 20 -82 15 0 20 8 22 36 4 44 -16 65 -42
46z"/>
<path d="M3811 2606 c-21 -25 -11 -220 12 -243 30 -31 38 -5 26 87 -6 47 -8
97 -5 111 3 15 -1 34 -8 44 -11 15 -13 15 -25 1z"/>
<path d="M2337 2543 c-16 -16 -6 -84 15 -105 27 -27 32 -15 23 58 -6 50 -19
66 -38 47z"/>
<path d="M4364 2519 c-10 -17 6 -79 21 -79 20 0 27 17 20 49 -7 31 -30 47 -41
30z"/>
<path d="M2908 2508 c-3 -7 2 -34 9 -60 11 -37 19 -48 35 -48 18 0 20 4 14 31
-12 63 -47 109 -58 77z"/>
<path d="M3366 2501 c-10 -15 12 -163 25 -172 22 -13 39 9 28 37 -5 14 -9 47
-9 73 0 54 -26 91 -44 62z"/>
<path d="M3960 2455 c0 -29 25 -44 43 -26 14 14 -2 44 -27 49 -11 3 -16 -4
-16 -23z"/>
<path d="M4592 2469 c2 -6 8 -10 13 -10 5 0 11 4 13 10 2 6 -4 11 -13 11 -9 0
-15 -5 -13 -11z"/>
<path d="M4534 2456 c-3 -8 -12 -12 -20 -9 -9 3 -27 -8 -45 -28 -28 -31 -31
-41 -33 -105 -1 -82 -17 -111 -121 -223 -270 -291 -743 -437 -1195 -370 -262
39 -487 138 -677 298 -67 56 -195 209 -187 222 3 5 -1 27 -7 49 -11 35 -10 45
4 70 14 23 14 29 3 33 -14 6 -32 -16 -329 -383 -104 -128 -156 -201 -153 -212
2 -10 -1 -18 -9 -18 -17 0 -17 -2 -65 -840 -22 -377 -43 -736 -46 -797 l-7
-113 447 0 c383 0 446 2 446 15 0 7 -4 36 -10 62 -13 61 -115 860 -130 1013
-6 63 -15 131 -20 150 -5 19 -16 103 -25 185 -8 83 -23 197 -31 255 -25 161
-43 303 -44 328 0 20 12 12 75 -52 167 -168 396 -289 660 -348 143 -31 416
-36 570 -10 207 36 386 105 542 208 158 105 310 269 297 320 -4 16 -2 24 6 24
21 0 7 -134 -110 -1105 -62 -506 -114 -948 -117 -982 l-6 -62 472 -1 471 0 0
869 c0 770 2 870 15 881 14 12 13 16 -8 39 -14 14 -32 41 -41 59 -9 18 -28 38
-41 44 -22 10 -154 152 -264 284 -28 34 -62 69 -76 78 -14 9 -39 36 -56 59
-17 23 -53 61 -80 85 -38 34 -50 40 -55 28z m-2141 -428 c179 -173 456 -299
740 -337 43 -6 141 -11 217 -11 373 0 707 126 955 360 54 51 69 62 48 35 -104
-134 -284 -262 -479 -339 -505 -200 -1129 -94 -1482 252 -77 76 -116 126 -127
162 -6 20 1 15 31 -20 20 -25 64 -71 97 -102z"/>
<path d="M4192 2428 c-15 -15 -16 -54 -2 -63 6 -4 24 -4 40 0 22 5 30 12 30
29 0 26 -17 46 -40 46 -9 0 -21 -5 -28 -12z"/>
<path d="M2655 2379 c-12 -18 5 -78 25 -89 11 -6 21 -9 21 -8 7 14 4 86 -3 96
-13 15 -35 16 -43 1z"/>
<path d="M3640 2358 c2 -48 28 -133 40 -133 21 0 25 65 6 109 -14 34 -47 51
-46 24z"/>
<path d="M2955 2323 c8 -45 22 -73 36 -73 17 0 21 27 9 69 -8 31 -16 41 -31
41 -19 0 -20 -4 -14 -37z"/>
<path d="M3517 2327 c-3 -8 -2 -38 1 -68 6 -45 11 -55 28 -57 27 -4 36 18 24
55 -5 15 -12 40 -15 56 -6 28 -29 37 -38 14z"/>
<path d="M3185 2291 c-8 -14 6 -95 18 -103 6 -3 17 -4 24 -1 14 6 13 41 -3 96
-6 18 -29 23 -39 8z"/>
</g>
</svg>
